<svg width="16" height="16" viewBox="0 0 16 16" fill="none" xmlns="http://www.w3.org/2000/svg">
<path d="M12.6666 10.5005C12.6009 10.5006 12.5358 10.4878 12.4752 10.4626C12.4145 10.4374 12.3595 10.4004 12.3132 10.3538L7.9999 6.04115L3.68656 10.3538C3.59178 10.4421 3.46642 10.4902 3.33688 10.4879C3.20735 10.4857 3.08376 10.4332 2.99215 10.3416C2.90054 10.25 2.84807 10.1264 2.84578 9.99684C2.8435 9.8673 2.89158 9.74194 2.9799 9.64715L7.64656 4.98049C7.69294 4.93404 7.74802 4.8972 7.80865 4.87206C7.86928 4.84692 7.93427 4.83398 7.9999 4.83398C8.06553 4.83398 8.13052 4.84692 8.19115 4.87206C8.25178 4.8972 8.30685 4.93404 8.35323 4.98049L13.0199 9.64715C13.0897 9.71708 13.1373 9.80613 13.1565 9.90306C13.1758 10 13.1659 10.1005 13.1281 10.1918C13.0903 10.2831 13.0263 10.3611 12.9441 10.4161C12.862 10.471 12.7654 10.5004 12.6666 10.5005Z" fill="#25314C"/>
</svg>
