<svg width="16" height="16" viewBox="0 0 16 16" fill="none" xmlns="http://www.w3.org/2000/svg">
<g opacity="0.4">
<path d="M7.9999 11.1669C7.93423 11.1671 7.86917 11.1542 7.80852 11.129C7.74787 11.1038 7.69282 11.0668 7.64656 11.0202L2.9799 6.35356C2.89158 6.25877 2.8435 6.13341 2.84578 6.00388C2.84807 5.87434 2.90054 5.75075 2.99215 5.65914C3.08376 5.56753 3.20735 5.51506 3.33688 5.51277C3.46642 5.51049 3.59178 5.55857 3.68656 5.64689L7.9999 9.95956L12.3132 5.64689C12.408 5.55857 12.5334 5.51049 12.6629 5.51277C12.7924 5.51506 12.916 5.56753 13.0076 5.65914C13.0993 5.75075 13.1517 5.87434 13.154 6.00388C13.1563 6.13341 13.1082 6.25877 13.0199 6.35356L8.35323 11.0202C8.30698 11.0668 8.25193 11.1038 8.19127 11.129C8.13062 11.1542 8.06557 11.1671 7.9999 11.1669Z" fill="#25314C"/>
</g>
</svg>
