<svg width="16" height="16" viewBox="0 0 16 16" fill="none" xmlns="http://www.w3.org/2000/svg">
<path d="M6.66668 14.5001C6.53407 14.5001 6.40689 14.4475 6.31312 14.3537C6.21936 14.2599 6.16668 14.1327 6.16668 14.0001V9.1668H3.33334C3.23701 9.16639 3.14283 9.13818 3.06212 9.08558C2.98141 9.03297 2.91759 8.9582 2.87832 8.87023C2.83905 8.78225 2.826 8.68482 2.84072 8.58961C2.85545 8.4944 2.89733 8.40547 2.96134 8.33347L8.96134 1.6668C9.02906 1.59193 9.11782 1.53927 9.21599 1.51574C9.31417 1.49221 9.41716 1.49891 9.51145 1.53496C9.60575 1.571 9.68695 1.63471 9.74439 1.71773C9.80184 1.80074 9.83284 1.89918 9.83334 2.00013V6.83347H12.6667C12.7633 6.83366 12.8577 6.86178 12.9387 6.91445C13.0197 6.96712 13.0837 7.04209 13.123 7.13032C13.1623 7.21855 13.1753 7.31626 13.1603 7.41169C13.1454 7.50712 13.1031 7.59618 13.0387 7.66813L7.03868 14.3348C6.99168 14.3868 6.93429 14.4284 6.87021 14.4569C6.80614 14.4854 6.7368 14.5001 6.66668 14.5001ZM4.45601 8.1668H6.66668C6.79929 8.1668 6.92646 8.21948 7.02023 8.31325C7.114 8.40702 7.16668 8.53419 7.16668 8.6668V12.6975L11.544 7.8308H9.33334C9.20074 7.8308 9.07356 7.77812 8.97979 7.68435C8.88602 7.59059 8.83334 7.46341 8.83334 7.3308V3.3028L4.45601 8.1668Z" fill="#25314C"/>
</svg>
