<svg width="18" height="18" viewBox="0 0 18 18" fill="none" xmlns="http://www.w3.org/2000/svg">
<path d="M6 10.5C5.7875 10.5 5.6095 10.428 5.466 10.284C5.3225 10.14 5.2505 9.962 5.25 9.75C5.2495 9.538 5.3215 9.36 5.466 9.216C5.6105 9.072 5.7885 9 6 9C6.2115 9 6.38975 9.072 6.53475 9.216C6.67975 9.36 6.7515 9.538 6.75 9.75C6.7485 9.962 6.6765 10.1402 6.534 10.2847C6.3915 10.4292 6.2135 10.501 6 10.5ZM9 10.5C8.7875 10.5 8.6095 10.428 8.466 10.284C8.3225 10.14 8.2505 9.962 8.25 9.75C8.2495 9.538 8.3215 9.36 8.466 9.216C8.6105 9.072 8.7885 9 9 9C9.2115 9 9.38975 9.072 9.53475 9.216C9.67975 9.36 9.7515 9.538 9.75 9.75C9.7485 9.962 9.6765 10.1402 9.534 10.2847C9.3915 10.4292 9.2135 10.501 9 10.5ZM12 10.5C11.7875 10.5 11.6095 10.428 11.466 10.284C11.3225 10.14 11.2505 9.962 11.25 9.75C11.2495 9.538 11.3215 9.36 11.466 9.216C11.6105 9.072 11.7885 9 12 9C12.2115 9 12.3897 9.072 12.5347 9.216C12.6797 9.36 12.7515 9.538 12.75 9.75C12.7485 9.962 12.6765 10.1402 12.534 10.2847C12.3915 10.4292 12.2135 10.501 12 10.5ZM2.25 16.5V3H4.5V1.5H6V3H12V1.5H13.5V3H15.75V16.5H2.25ZM3.75 15H14.25V7.5H3.75V15Z" fill="#A6A6A6"/>
</svg>
