<svg width="16" height="16" viewBox="0 0 16 16" fill="none" xmlns="http://www.w3.org/2000/svg">
<path d="M10.6867 6.09067C10.7331 6.1371 10.77 6.19223 10.7951 6.25292C10.8203 6.3136 10.8332 6.37865 10.8332 6.44433C10.8332 6.51002 10.8203 6.57507 10.7951 6.63575C10.77 6.69643 10.7331 6.75157 10.6867 6.798L7.576 9.90933C7.48205 10.0028 7.35489 10.0553 7.22233 10.0553C7.08978 10.0553 6.96262 10.0028 6.86867 9.90933L5.31333 8.35333C5.22501 8.25855 5.17693 8.13319 5.17922 8.00365C5.1815 7.87412 5.23398 7.75053 5.32559 7.65892C5.41719 7.56731 5.54078 7.51484 5.67032 7.51255C5.79985 7.51026 5.92522 7.55835 6.02 7.64667L7.22 8.84667L9.98 6.09067C10.0738 5.9972 10.2009 5.94472 10.3333 5.94472C10.4658 5.94472 10.5928 5.9972 10.6867 6.09067ZM14.5 4.25V11.75C14.5 13.5233 13.5233 14.5 11.75 14.5H4.25C2.47667 14.5 1.5 13.5233 1.5 11.75V4.25C1.5 2.47667 2.47667 1.5 4.25 1.5H11.75C13.5233 1.5 14.5 2.47667 14.5 4.25ZM13.5 4.25C13.5 3.02333 12.9767 2.5 11.75 2.5H4.25C3.02333 2.5 2.5 3.02333 2.5 4.25V11.75C2.5 12.9767 3.02333 13.5 4.25 13.5H11.75C12.9767 13.5 13.5 12.9767 13.5 11.75V4.25Z" fill="black"/>
</svg>
