<svg width="80" height="80" viewBox="0 0 80 80" fill="none" xmlns="http://www.w3.org/2000/svg">
<path d="M56.6667 14.1664H55.7667C55.7544 13.2281 55.5476 12.3026 55.1595 11.4483C54.7714 10.5941 54.2104 9.82953 53.5119 9.20305C52.8133 8.57656 51.9925 8.10174 51.1011 7.80855C50.2098 7.51537 49.2674 7.4102 48.3333 7.49969H31.6667C30.7326 7.4102 29.7902 7.51537 28.8989 7.80855C28.0075 8.10174 27.1867 8.57656 26.4882 9.20305C25.7896 9.82953 25.2286 10.5941 24.8405 11.4483C24.4524 12.3026 24.2457 13.2281 24.2333 14.1664H23.3333C21.6445 13.9706 19.9332 14.1593 18.3276 14.7182C16.7219 15.2772 15.2634 16.192 14.0612 17.3942C12.859 18.5964 11.9442 20.0549 11.3852 21.6606C10.8263 23.2662 10.6376 24.9775 10.8334 26.6663V59.9997C10.6376 61.6885 10.8263 63.3998 11.3852 65.0055C11.9442 66.6111 12.859 68.0696 14.0612 69.2718C15.2634 70.474 16.7219 71.3888 18.3276 71.9478C19.9332 72.5068 21.6445 72.6954 23.3333 72.4997H56.6667C58.3555 72.6954 60.0668 72.5068 61.6725 71.9478C63.2781 71.3888 64.7366 70.474 65.9388 69.2718C67.141 68.0696 68.0558 66.6111 68.6148 65.0055C69.1737 63.3998 69.3624 61.6885 69.1667 59.9997V26.6663C69.3624 24.9775 69.1737 23.2662 68.6148 21.6606C68.0558 20.0549 67.141 18.5964 65.9388 17.3942C64.7366 16.192 63.2781 15.2772 61.6725 14.7182C60.0668 14.1593 58.3555 13.9706 56.6667 14.1664ZM29.1667 14.9997C29.1667 13.0364 29.7033 12.4997 31.6667 12.4997H48.3333C50.2967 12.4997 50.8333 13.0364 50.8333 14.9997V18.333C50.8333 20.2963 50.2967 20.833 48.3333 20.833H31.6667C29.7033 20.833 29.1667 20.2963 29.1667 18.333V14.9997ZM64.1667 59.9997C64.1667 65.2563 61.9233 67.4997 56.6667 67.4997H23.3333C18.0767 67.4997 15.8334 65.2563 15.8334 59.9997V26.6663C15.8334 21.4097 18.0767 19.1663 23.3333 19.1663H24.2333C24.2457 20.1046 24.4524 21.0301 24.8405 21.8844C25.2286 22.7386 25.7896 23.5032 26.4882 24.1297C27.1867 24.7561 28.0075 25.231 28.8989 25.5241C29.7902 25.8173 30.7326 25.9225 31.6667 25.833H48.3333C49.2674 25.9225 50.2098 25.8173 51.1011 25.5241C51.9925 25.231 52.8133 24.7561 53.5119 24.1297C54.2104 23.5032 54.7714 22.7386 55.1595 21.8844C55.5476 21.0301 55.7544 20.1046 55.7667 19.1663H56.6667C61.9233 19.1663 64.1667 21.4097 64.1667 26.6663V59.9997ZM55.8333 39.9997C55.8333 40.6627 55.5699 41.2986 55.1011 41.7674C54.6323 42.2363 53.9964 42.4997 53.3333 42.4997H36.6667C36.0036 42.4997 35.3678 42.2363 34.8989 41.7674C34.4301 41.2986 34.1667 40.6627 34.1667 39.9997C34.1667 39.3366 34.4301 38.7008 34.8989 38.2319C35.3678 37.7631 36.0036 37.4997 36.6667 37.4997H53.3333C53.9964 37.4997 54.6323 37.7631 55.1011 38.2319C55.5699 38.7008 55.8333 39.3366 55.8333 39.9997ZM55.8333 53.333C55.8333 53.9961 55.5699 54.6319 55.1011 55.1008C54.6323 55.5696 53.9964 55.833 53.3333 55.833H36.6667C36.0036 55.833 35.3678 55.5696 34.8989 55.1008C34.4301 54.6319 34.1667 53.9961 34.1667 53.333C34.1667 52.67 34.4301 52.0341 34.8989 51.5652C35.3678 51.0964 36.0036 50.833 36.6667 50.833H53.3333C53.9964 50.833 54.6323 51.0964 55.1011 51.5652C55.5699 52.0341 55.8333 52.67 55.8333 53.333ZM29.1667 39.9997C29.1667 40.4941 29.0201 40.9775 28.7454 41.3886C28.4706 41.7997 28.0802 42.1202 27.6234 42.3094C27.1666 42.4986 26.6639 42.5481 26.179 42.4516C25.694 42.3552 25.2485 42.1171 24.8989 41.7674C24.5493 41.4178 24.3112 40.9724 24.2147 40.4874C24.1183 40.0025 24.1678 39.4998 24.357 39.043C24.5462 38.5862 24.8666 38.1957 25.2778 37.921C25.6889 37.6463 26.1722 37.4997 26.6667 37.4997C27.3297 37.4997 27.9656 37.7631 28.4344 38.2319C28.9033 38.7008 29.1667 39.3366 29.1667 39.9997ZM29.1667 53.333C29.1667 53.8275 29.0201 54.3108 28.7454 54.7219C28.4706 55.1331 28.0802 55.4535 27.6234 55.6427C27.1666 55.8319 26.6639 55.8814 26.179 55.785C25.694 55.6885 25.2485 55.4504 24.8989 55.1008C24.5493 54.7511 24.3112 54.3057 24.2147 53.8207C24.1183 53.3358 24.1678 52.8331 24.357 52.3763C24.5462 51.9195 24.8666 51.529 25.2778 51.2543C25.6889 50.9796 26.1722 50.833 26.6667 50.833C27.3297 50.833 27.9656 51.0964 28.4344 51.5652C28.9033 52.0341 29.1667 52.67 29.1667 53.333Z" fill="#CDCDCD"/>
</svg>
