<svg width="16" height="16" viewBox="0 0 16 16" fill="none" xmlns="http://www.w3.org/2000/svg">
<path d="M13.9795 8.3183C13.9171 9.47488 13.521 10.5886 12.8391 11.5249C12.1572 12.4611 11.2187 13.1798 10.137 13.5941C9.05537 14.0084 7.87689 14.1004 6.74402 13.8592C5.61116 13.618 4.57241 13.0538 3.75336 12.2348C2.9343 11.4159 2.37 10.3772 2.12866 9.24435C1.88733 8.11151 1.97929 6.93302 2.39344 5.85133C2.80759 4.76965 3.52619 3.83108 4.46238 3.14908C5.39856 2.46708 6.51226 2.07085 7.66883 2.0083C7.93863 1.99364 8.07985 2.31474 7.93663 2.54323C7.45757 3.3097 7.25245 4.21591 7.35472 5.11397C7.457 6.01203 7.86063 6.84891 8.49976 7.48803C9.13889 8.12716 9.97577 8.5308 10.8738 8.63307C11.7719 8.73535 12.6781 8.53022 13.4446 8.05117C13.6737 7.90794 13.9942 8.0485 13.9795 8.3183Z" stroke="#0A0A0A" stroke-width="1.33235" stroke-linecap="round" stroke-linejoin="round"/>
</svg>
