<svg width="20" height="20" viewBox="0 0 20 20" fill="none" xmlns="http://www.w3.org/2000/svg">
<path d="M7.49545 10.8268C7.95542 10.8268 8.3283 10.454 8.3283 9.99398C8.3283 9.53401 7.95542 9.16113 7.49545 9.16113C7.03548 9.16113 6.6626 9.53401 6.6626 9.99398C6.6626 10.454 7.03548 10.8268 7.49545 10.8268Z" stroke="#717182" stroke-width="1.6657" stroke-linecap="round" stroke-linejoin="round"/>
<path d="M7.49545 4.99675C7.95542 4.99675 8.3283 4.62388 8.3283 4.1639C8.3283 3.70393 7.95542 3.33105 7.49545 3.33105C7.03548 3.33105 6.6626 3.70393 6.6626 4.1639C6.6626 4.62388 7.03548 4.99675 7.49545 4.99675Z" stroke="#717182" stroke-width="1.6657" stroke-linecap="round" stroke-linejoin="round"/>
<path d="M7.49545 16.6569C7.95542 16.6569 8.3283 16.284 8.3283 15.8241C8.3283 15.3641 7.95542 14.9912 7.49545 14.9912C7.03548 14.9912 6.6626 15.3641 6.6626 15.8241C6.6626 16.284 7.03548 16.6569 7.49545 16.6569Z" stroke="#717182" stroke-width="1.6657" stroke-linecap="round" stroke-linejoin="round"/>
<path d="M12.4925 10.8268C12.9525 10.8268 13.3254 10.454 13.3254 9.99398C13.3254 9.53401 12.9525 9.16113 12.4925 9.16113C12.0325 9.16113 11.6597 9.53401 11.6597 9.99398C11.6597 10.454 12.0325 10.8268 12.4925 10.8268Z" stroke="#717182" stroke-width="1.6657" stroke-linecap="round" stroke-linejoin="round"/>
<path d="M12.4925 4.99675C12.9525 4.99675 13.3254 4.62388 13.3254 4.1639C13.3254 3.70393 12.9525 3.33105 12.4925 3.33105C12.0325 3.33105 11.6597 3.70393 11.6597 4.1639C11.6597 4.62388 12.0325 4.99675 12.4925 4.99675Z" stroke="#717182" stroke-width="1.6657" stroke-linecap="round" stroke-linejoin="round"/>
<path d="M12.4925 16.6569C12.9525 16.6569 13.3254 16.284 13.3254 15.8241C13.3254 15.3641 12.9525 14.9912 12.4925 14.9912C12.0325 14.9912 11.6597 15.3641 11.6597 15.8241C11.6597 16.284 12.0325 16.6569 12.4925 16.6569Z" stroke="#717182" stroke-width="1.6657" stroke-linecap="round" stroke-linejoin="round"/>
</svg>
