<svg width="16" height="16" viewBox="0 0 16 16" fill="none" xmlns="http://www.w3.org/2000/svg">
<path d="M13.167 10.0003V12.0003C13.2062 12.338 13.1684 12.6803 13.0566 13.0014C12.9448 13.3226 12.7619 13.6143 12.5214 13.8547C12.281 14.0951 11.9893 14.2781 11.6682 14.3899C11.347 14.5017 11.0048 14.5394 10.667 14.5003H4.00035C3.66258 14.5394 3.32032 14.5017 2.99919 14.3899C2.67806 14.2781 2.38636 14.0951 2.14592 13.8547C1.90548 13.6143 1.72252 13.3226 1.61073 13.0014C1.49893 12.6803 1.4612 12.338 1.50035 12.0003V5.3336C1.4612 4.99583 1.49893 4.65358 1.61073 4.33244C1.72252 4.01131 1.90548 3.71962 2.14592 3.47918C2.38636 3.23874 2.67806 3.05577 2.99919 2.94398C3.32032 2.83219 3.66258 2.79445 4.00035 2.8336H6.00035C6.13296 2.8336 6.26013 2.88628 6.3539 2.98005C6.44767 3.07382 6.50035 3.20099 6.50035 3.3336C6.50035 3.46621 6.44767 3.59339 6.3539 3.68716C6.26013 3.78092 6.13296 3.8336 6.00035 3.8336H4.00035C2.94902 3.8336 2.50035 4.28227 2.50035 5.3336V12.0003C2.50035 13.0516 2.94902 13.5003 4.00035 13.5003H10.667C11.7184 13.5003 12.167 13.0516 12.167 12.0003V10.0003C12.167 9.86766 12.2197 9.74048 12.3135 9.64672C12.4072 9.55295 12.5344 9.50027 12.667 9.50027C12.7996 9.50027 12.9268 9.55295 13.0206 9.64672C13.1143 9.74048 13.167 9.86766 13.167 10.0003ZM14.5003 4.0376C14.5003 4.23027 14.4619 4.42101 14.3876 4.59874C14.3132 4.77648 14.2042 4.93766 14.067 5.07294L8.09168 11.0209C7.99781 11.1144 7.87079 11.1669 7.73835 11.1669H5.33368C5.20107 11.1669 5.0739 11.1143 4.98013 11.0205C4.88636 10.9267 4.83368 10.7995 4.83368 10.6669V8.2596C4.83356 8.19409 4.8464 8.12921 4.87145 8.06868C4.89651 8.00816 4.93329 7.95319 4.97968 7.90693L10.9284 1.9336C11.0635 1.79684 11.2246 1.68833 11.4021 1.61439C11.5796 1.54046 11.7701 1.50257 11.9624 1.50294C12.1546 1.5024 12.345 1.54002 12.5226 1.6136C12.7002 1.68718 12.8615 1.79527 12.997 1.9316L14.0717 3.00027C14.2084 3.1361 14.3167 3.29777 14.3903 3.47586C14.4638 3.65395 14.5013 3.84491 14.5003 4.0376ZM11.745 5.9756L10.025 4.2556L5.83368 8.46694V10.1669H7.53368L11.745 5.9756ZM13.5003 4.03627C13.5008 3.97551 13.4892 3.91527 13.4664 3.85899C13.4435 3.80271 13.4097 3.75149 13.367 3.70827L12.2937 2.6356C12.2507 2.5928 12.1996 2.55898 12.1434 2.53609C12.0872 2.5132 12.027 2.5017 11.9663 2.50227C11.9057 2.50189 11.8456 2.51347 11.7894 2.53634C11.7332 2.55922 11.6821 2.59295 11.639 2.6356L10.7337 3.54694L12.4537 5.27027L13.3637 4.36427C13.407 4.32132 13.4414 4.27023 13.4648 4.21393C13.4883 4.15764 13.5003 4.09726 13.5003 4.03627Z" fill="#54BD95"/>
</svg>
