<svg width="16" height="16" viewBox="0 0 16 16" fill="none" xmlns="http://www.w3.org/2000/svg">
<g clip-path="url(#clip0_32_3724)">
<path d="M6.6618 13.323C6.66174 13.4468 6.69618 13.5682 6.76125 13.6735C6.82632 13.7788 6.91945 13.8639 7.03019 13.9192L8.36254 14.5854C8.46413 14.6362 8.57701 14.6601 8.69046 14.655C8.80391 14.6499 8.91416 14.6158 9.01075 14.5561C9.10733 14.4963 9.18704 14.4129 9.24231 14.3137C9.29757 14.2144 9.32655 14.1028 9.3265 13.9892V9.32597C9.32665 8.9958 9.44938 8.67745 9.67091 8.43263L14.4827 3.11056C14.5689 3.015 14.6256 2.89651 14.646 2.7694C14.6663 2.64229 14.6494 2.51202 14.5972 2.39434C14.5451 2.27665 14.4599 2.1766 14.3521 2.10627C14.2443 2.03594 14.1184 1.99835 13.9897 1.99805H1.99858C1.86974 1.99809 1.74369 2.0355 1.63568 2.10572C1.52767 2.17595 1.44234 2.27599 1.39003 2.39373C1.33772 2.51147 1.32067 2.64184 1.34094 2.76907C1.36122 2.8963 1.41796 3.01492 1.50427 3.11056L6.31739 8.43263C6.53891 8.67745 6.66165 8.9958 6.6618 9.32597V13.323Z" stroke="#717182" stroke-width="1.33235" stroke-linecap="round" stroke-linejoin="round"/>
</g>
<defs>
<clipPath id="clip0_32_3724">
<rect width="15.9882" height="15.9882" fill="white"/>
</clipPath>
</defs>
</svg>
