<svg width="80" height="80" viewBox="0 0 80 80" fill="none" xmlns="http://www.w3.org/2000/svg">
<path d="M40 72.4998C33.151 72.4919 26.5848 69.7676 21.7419 64.9246C16.8989 60.0817 14.1746 53.5155 14.1667 46.6665C14.0057 43.243 14.5833 39.8249 15.8601 36.6443C17.1369 33.4637 19.0832 30.5951 21.5667 28.2332C22.5667 27.2332 23.6834 26.2332 24.8534 25.2032C29.43 21.1465 34.1667 16.9498 34.1667 9.99982C34.1667 9.54734 34.2896 9.10336 34.5221 8.71521C34.7546 8.32706 35.0881 8.00929 35.4871 7.79579C35.886 7.5823 36.3354 7.48107 36.7874 7.50291C37.2393 7.52476 37.6769 7.66885 38.0534 7.91982C38.2534 8.05315 56.0534 20.2532 48.59 41.2532C50.2846 39.9974 51.6773 38.3792 52.6667 36.5165C53.6844 34.4968 54.199 32.2612 54.1667 29.9998C54.1664 29.5034 54.314 29.0181 54.5906 28.6058C54.8671 28.1935 55.2602 27.8729 55.7196 27.6849C56.1791 27.4968 56.6841 27.4498 57.1704 27.5498C57.6566 27.6498 58.1021 27.8924 58.45 28.2465C63.2133 33.1924 65.8618 39.7999 65.8334 46.6665C65.8254 53.5155 63.1012 60.0817 58.2582 64.9246C53.4152 69.7676 46.849 72.4919 40 72.4998ZM38.54 14.9065C36.5787 20.5263 32.9624 25.4209 28.1667 28.9465C27.08 29.9098 26.03 30.8365 25.1 31.7665C23.0889 33.6706 21.5164 35.9898 20.4918 38.5628C19.4672 41.1358 19.015 43.9011 19.1667 46.6665C19.1667 52.1918 21.3616 57.4909 25.2686 61.3979C29.1756 65.3049 34.4747 67.4998 40 67.4998C45.5254 67.4998 50.8244 65.3049 54.7314 61.3979C58.6384 57.4909 60.8334 52.1918 60.8334 46.6665C60.8376 43.0244 59.9312 39.439 58.1967 36.2365C57.9009 37.123 57.5376 37.9855 57.11 38.8165C54.2419 43.8403 49.5104 47.5324 43.94 49.0932C43.4646 49.2121 42.9647 49.1886 42.5025 49.0258C42.0403 48.8629 41.6362 48.5678 41.3403 48.1771C41.0445 47.7865 40.87 47.3175 40.8385 46.8284C40.8071 46.3394 40.92 45.8519 41.1634 45.4265C49.9167 30.1032 43.12 19.6265 38.54 14.9065Z" fill="#CDCDCD"/>
</svg>
