<svg width="32" height="32" viewBox="0 0 32 32" fill="none" xmlns="http://www.w3.org/2000/svg">
<path d="M11.3295 19.3271C12.2132 19.3271 13.0608 18.976 13.6857 18.3511C14.3106 17.7262 14.6617 16.8787 14.6617 15.9949C14.6617 14.1555 13.9952 13.3292 13.3288 11.9963C11.9 9.13993 13.0302 6.5928 15.9946 3.99902C16.661 7.33121 18.6603 10.5301 21.3261 12.6627C23.9918 14.7953 25.3247 17.3278 25.3247 19.9935C25.3247 21.2188 25.0834 22.432 24.6145 23.564C24.1456 24.696 23.4583 25.7246 22.592 26.5909C21.7256 27.4573 20.697 28.1446 19.5651 28.6135C18.4331 29.0823 17.2198 29.3237 15.9946 29.3237C14.7693 29.3237 13.5561 29.0823 12.4241 28.6135C11.2921 28.1446 10.2635 27.4573 9.39716 26.5909C8.53078 25.7246 7.84353 24.696 7.37464 23.564C6.90576 22.432 6.66443 21.2188 6.66443 19.9935C6.66443 18.4567 7.24156 16.9359 7.99731 15.9949C7.99731 16.8787 8.34837 17.7262 8.97328 18.3511C9.59819 18.976 10.4457 19.3271 11.3295 19.3271Z" stroke="#FF6900" stroke-width="2.66575" stroke-linecap="round" stroke-linejoin="round"/>
</svg>
