<svg width="12" height="12" viewBox="0 0 12 12" fill="none" xmlns="http://www.w3.org/2000/svg">
<g clip-path="url(#clip0_36_14620)">
<path d="M1.99805 10.989V1.99802C1.99805 1.92048 2.0161 1.844 2.05078 1.77464C2.08546 1.70528 2.13581 1.64495 2.19785 1.59842C2.71661 1.20935 3.34758 0.999023 3.99604 0.999023C5.49454 0.999023 6.49354 1.99802 7.65887 1.99802C8.32487 1.99802 8.83552 1.86482 9.19083 1.59842C9.26504 1.54276 9.35329 1.50887 9.44567 1.50054C9.53806 1.49221 9.63095 1.50977 9.71391 1.55126C9.79688 1.59274 9.86666 1.65651 9.91543 1.73542C9.9642 1.81433 9.99003 1.90526 9.99003 1.99802V6.99301C9.99003 7.07056 9.97198 7.14704 9.9373 7.21639C9.90262 7.28575 9.85227 7.34608 9.79023 7.39261C9.27146 7.78169 8.64049 7.99201 7.99203 7.99201C6.49354 7.99201 5.49454 6.99301 3.99604 6.99301C3.25884 6.99303 2.54751 7.26476 1.99805 7.75625" stroke="white" stroke-width="0.998998" stroke-linecap="round" stroke-linejoin="round"/>
</g>
<defs>
<clipPath id="clip0_36_14620">
<rect width="11.988" height="11.988" fill="white"/>
</clipPath>
</defs>
</svg>
