<svg width="12" height="12" viewBox="0 0 12 12" fill="none" xmlns="http://www.w3.org/2000/svg">
<g clip-path="url(#clip0_33_10694)">
<path d="M1.99805 10.988V1.99704C1.99805 1.9195 2.0161 1.84302 2.05078 1.77366C2.08546 1.7043 2.13581 1.64397 2.19785 1.59745C2.71661 1.20837 3.34758 0.998047 3.99604 0.998047C5.49454 0.998047 6.49354 1.99704 7.65887 1.99704C8.32487 1.99704 8.83552 1.86385 9.19083 1.59745C9.26504 1.54179 9.35329 1.50789 9.44567 1.49956C9.53806 1.49123 9.63095 1.50879 9.71391 1.55028C9.79688 1.59176 9.86666 1.65553 9.91543 1.73444C9.9642 1.81335 9.99003 1.90428 9.99003 1.99704V6.99203C9.99003 7.06958 9.97198 7.14606 9.9373 7.21542C9.90262 7.28478 9.85227 7.34511 9.79023 7.39163C9.27146 7.78071 8.64049 7.99103 7.99203 7.99103C6.49354 7.99103 5.49454 6.99203 3.99604 6.99203C3.25884 6.99205 2.54751 7.26378 1.99805 7.75527" stroke="white" stroke-width="0.998998" stroke-linecap="round" stroke-linejoin="round"/>
</g>
<defs>
<clipPath id="clip0_33_10694">
<rect width="11.988" height="11.988" fill="white"/>
</clipPath>
</defs>
</svg>
