<svg width="16" height="16" viewBox="0 0 16 16" fill="none" xmlns="http://www.w3.org/2000/svg">
<path d="M12 2.16734H3.99998C3.66221 2.12819 3.31996 2.16593 2.99883 2.27772C2.67769 2.38951 2.386 2.57248 2.14556 2.81292C1.90512 3.05336 1.72216 3.34505 1.61036 3.66618C1.49857 3.98732 1.46083 4.32957 1.49998 4.66734V11.334C1.46083 11.6718 1.49857 12.014 1.61036 12.3352C1.72216 12.6563 1.90512 12.948 2.14556 13.1884C2.386 13.4289 2.67769 13.6118 2.99883 13.7236C3.31996 13.8354 3.66221 13.8732 3.99998 13.834H12C12.3378 13.8732 12.68 13.8354 13.0011 13.7236C13.3223 13.6118 13.614 13.4289 13.8544 13.1884C14.0948 12.948 14.2778 12.6563 14.3896 12.3352C14.5014 12.014 14.5391 11.6718 14.5 11.334V4.66734C14.5391 4.32957 14.5014 3.98732 14.3896 3.66618C14.2778 3.34505 14.0948 3.05336 13.8544 2.81292C13.614 2.57248 13.3223 2.38951 13.0011 2.27772C12.68 2.16593 12.3378 2.12819 12 2.16734ZM2.49998 7.16734H7.49998V9.50068H2.49998V7.16734ZM8.49998 7.16734H13.5V9.50068H8.49998V7.16734ZM3.99998 3.16734H12C13.0513 3.16734 13.5 3.61601 13.5 4.66734V6.16734H2.49998V4.66734C2.49998 3.61601 2.94865 3.16734 3.99998 3.16734ZM2.49998 11.334V10.5007H7.49998V12.834H3.99998C2.94865 12.834 2.49998 12.3853 2.49998 11.334ZM12 12.834H8.49998V10.5007H13.5V11.334C13.5 12.3853 13.0513 12.834 12 12.834Z" fill="black"/>
</svg>
