<svg width="16" height="16" viewBox="0 0 16 16" fill="none" xmlns="http://www.w3.org/2000/svg">
<path d="M15.5 7.75C15.5 7.94891 15.421 8.13968 15.2803 8.28033C15.1397 8.42098 14.9489 8.5 14.75 8.5H8.5V14.75C8.5 14.9489 8.42098 15.1397 8.28033 15.2803C8.13968 15.421 7.94891 15.5 7.75 15.5C7.55109 15.5 7.36032 15.421 7.21967 15.2803C7.07902 15.1397 7 14.9489 7 14.75V8.5H0.75C0.551088 8.5 0.360322 8.42098 0.21967 8.28033C0.0790175 8.13968 0 7.94891 0 7.75C0 7.55109 0.0790175 7.36032 0.21967 7.21967C0.360322 7.07902 0.551088 7 0.75 7H7V0.75C7 0.551088 7.07902 0.360322 7.21967 0.21967C7.36032 0.0790175 7.55109 0 7.75 0C7.94891 0 8.13968 0.0790175 8.28033 0.21967C8.42098 0.360322 8.5 0.551088 8.5 0.75V7H14.75C14.9489 7 15.1397 7.07902 15.2803 7.21967C15.421 7.36032 15.5 7.55109 15.5 7.75Z" fill="white"/>
</svg>
