<svg width="18" height="18" viewBox="0 0 18 18" fill="none" xmlns="http://www.w3.org/2000/svg">
<path d="M16.1475 15.3526L13.2668 12.4719C14.3588 11.1748 14.9078 9.50616 14.799 7.81409C14.6903 6.12203 13.9322 4.53735 12.6831 3.39079C11.434 2.24424 9.79028 1.62441 8.09511 1.66069C6.39994 1.69696 4.78428 2.38653 3.58534 3.58547C2.38641 4.7844 1.69684 6.40006 1.66056 8.09523C1.62429 9.7904 2.24412 11.4341 3.39067 12.6832C4.53722 13.9323 6.12191 14.6904 7.81397 14.7991C9.50603 14.9079 11.1747 14.3589 12.4718 13.2669L15.3525 16.1476C15.4591 16.247 15.6002 16.3011 15.7459 16.2985C15.8916 16.2959 16.0307 16.2369 16.1337 16.1338C16.2368 16.0308 16.2958 15.8917 16.2984 15.746C16.301 15.6003 16.2469 15.4593 16.1475 15.3526ZM2.8125 8.25013C2.8125 7.17469 3.13141 6.12341 3.72889 5.22921C4.32637 4.33502 5.17559 3.63808 6.16916 3.22653C7.16274 2.81498 8.25604 2.7073 9.31081 2.91711C10.3656 3.12691 11.3344 3.64479 12.0949 4.40523C12.8553 5.16568 13.3732 6.13455 13.583 7.18932C13.7928 8.24409 13.6851 9.33739 13.2736 10.331C12.862 11.3245 12.1651 12.1738 11.2709 12.7712C10.3767 13.3687 9.32544 13.6876 8.25 13.6876C6.80838 13.686 5.42625 13.1126 4.40687 12.0933C3.38748 11.0739 2.81409 9.69175 2.8125 8.25013Z" fill="#909090"/>
</svg>
