<svg width="70" height="70" viewBox="0 0 70 70" fill="none" xmlns="http://www.w3.org/2000/svg">
<path d="M17.5 9.47852C15.3368 9.47852 13.2221 10.12 11.4235 11.3218C9.62479 12.5236 8.22291 14.2319 7.39507 16.2304C6.56724 18.229 6.35064 20.4282 6.77267 22.5498C7.19469 24.6715 8.23639 26.6204 9.76602 28.15C11.2957 29.6796 13.2445 30.7213 15.3662 31.1434C17.4879 31.5654 19.687 31.3488 21.6856 30.521C23.6842 29.6931 25.3924 28.2912 26.5942 26.4926C27.796 24.6939 28.4375 22.5793 28.4375 20.416C28.4344 17.5162 27.2811 14.736 25.2306 12.6854C23.1801 10.6349 20.3999 9.4816 17.5 9.47852ZM17.5 26.9785C16.2021 26.9785 14.9333 26.5936 13.8541 25.8725C12.7749 25.1514 11.9337 24.1265 11.437 22.9274C10.9403 21.7282 10.8104 20.4087 11.0636 19.1357C11.3168 17.8627 11.9418 16.6934 12.8596 15.7756C13.7774 14.8578 14.9467 14.2328 16.2197 13.9796C17.4927 13.7264 18.8122 13.8564 20.0114 14.3531C21.2105 14.8498 22.2354 15.6909 22.9565 16.7701C23.6776 17.8493 24.0625 19.1181 24.0625 20.416C24.061 22.156 23.3691 23.8243 22.1387 25.0547C20.9083 26.2851 19.24 26.977 17.5 26.9785ZM52.5 38.6452C50.3368 38.6452 48.2221 39.2867 46.4235 40.4885C44.6248 41.6903 43.2229 43.3985 42.3951 45.3971C41.5672 47.3957 41.3506 49.5948 41.7727 51.7165C42.1947 53.8382 43.2364 55.787 44.766 57.3167C46.2957 58.8463 48.2445 59.888 50.3662 60.31C52.4879 60.7321 54.687 60.5155 56.6856 59.6876C58.6842 58.8598 60.3924 57.4579 61.5942 55.6593C62.796 53.8606 63.4375 51.7459 63.4375 49.5827C63.4344 46.6828 62.2811 43.9026 60.2306 41.8521C58.1801 39.8016 55.3999 38.6483 52.5 38.6452ZM52.5 56.1452C51.2021 56.1452 49.9333 55.7603 48.8541 55.0392C47.7749 54.3181 46.9337 53.2932 46.437 52.0941C45.9403 50.8949 45.8104 49.5754 46.0636 48.3024C46.3168 47.0294 46.9418 45.8601 47.8596 44.9423C48.7774 44.0245 49.9467 43.3995 51.2197 43.1463C52.4927 42.8931 53.8122 43.023 55.0114 43.5197C56.2105 44.0164 57.2354 44.8576 57.9565 45.9368C58.6776 47.016 59.0625 48.2848 59.0625 49.5827C59.061 51.3227 58.3691 52.991 57.1387 54.2214C55.9083 55.4518 54.24 56.1437 52.5 56.1452ZM43.75 22.6035H61.25C61.8302 22.6035 62.3866 22.3731 62.7968 21.9628C63.207 21.5526 63.4375 20.9962 63.4375 20.416C63.4375 19.8359 63.207 19.2795 62.7968 18.8692C62.3866 18.459 61.8302 18.2285 61.25 18.2285H43.75C43.1698 18.2285 42.6134 18.459 42.2032 18.8692C41.793 19.2795 41.5625 19.8359 41.5625 20.416C41.5625 20.9962 41.793 21.5526 42.2032 21.9628C42.6134 22.3731 43.1698 22.6035 43.75 22.6035ZM26.25 47.3952H8.75001C8.16984 47.3952 7.61344 47.6257 7.20321 48.0359C6.79297 48.4461 6.56251 49.0025 6.56251 49.5827C6.56251 50.1629 6.79297 50.7193 7.20321 51.1295C7.61344 51.5397 8.16984 51.7702 8.75001 51.7702H26.25C26.8302 51.7702 27.3866 51.5397 27.7968 51.1295C28.207 50.7193 28.4375 50.1629 28.4375 49.5827C28.4375 49.0025 28.207 48.4461 27.7968 48.0359C27.3866 47.6257 26.8302 47.3952 26.25 47.3952Z" fill="#B6B6B6"/>
</svg>
