<svg width="16" height="16" viewBox="0 0 16 16" fill="none" xmlns="http://www.w3.org/2000/svg">
<g opacity="0.4">
<path d="M14 3.5H11.6273C11.0273 3.5 11.0013 3.424 10.8367 2.93067L10.7033 2.526C10.6042 2.22684 10.4132 1.96659 10.1575 1.78236C9.90182 1.59813 9.59449 1.49932 9.27933 1.5H6.72067C6.40574 1.4996 6.09871 1.59854 5.84328 1.78275C5.58785 1.96696 5.39704 2.22705 5.298 2.526L5.16467 2.93067C5 3.424 4.974 3.5 4.374 3.5H2C1.86739 3.5 1.74021 3.55268 1.64645 3.64645C1.55268 3.74022 1.5 3.86739 1.5 4C1.5 4.13261 1.55268 4.25979 1.64645 4.35356C1.74021 4.44732 1.86739 4.5 2 4.5H2.86667L3.378 12.1667C3.37155 12.4888 3.43296 12.8086 3.55824 13.1055C3.68351 13.4023 3.86986 13.6694 4.10515 13.8895C4.34044 14.1096 4.61942 14.2777 4.92394 14.3828C5.22846 14.488 5.55171 14.5279 5.87267 14.5H10.13C10.451 14.5279 10.7742 14.488 11.0787 14.3828C11.3832 14.2777 11.6622 14.1096 11.8975 13.8895C12.1328 13.6694 12.3192 13.4023 12.4444 13.1055C12.5697 12.8086 12.6311 12.4888 12.6247 12.1667L13.1333 4.5H14C14.1326 4.5 14.2598 4.44732 14.3536 4.35356C14.4473 4.25979 14.5 4.13261 14.5 4C14.5 3.86739 14.4473 3.74022 14.3536 3.64645C14.2598 3.55268 14.1326 3.5 14 3.5ZM6.24667 2.842C6.27964 2.74237 6.3432 2.65568 6.42831 2.59428C6.51341 2.53287 6.61572 2.49988 6.72067 2.5H9.27933C9.38428 2.49988 9.48659 2.53287 9.57169 2.59428C9.6568 2.65568 9.72036 2.74237 9.75333 2.842L9.88667 3.24667C9.91533 3.334 9.94533 3.41867 9.97733 3.5H6.02067C6.05267 3.418 6.08267 3.33334 6.11133 3.24667L6.24667 2.842ZM11.6253 12.0993C11.6399 12.2954 11.6104 12.4923 11.5389 12.6754C11.4674 12.8586 11.3558 13.0233 11.2122 13.1577C11.0686 13.292 10.8967 13.3924 10.7092 13.4515C10.5217 13.5106 10.3233 13.527 10.1287 13.4993H5.87133C5.67668 13.527 5.4783 13.5106 5.29079 13.4515C5.10328 13.3924 4.93141 13.292 4.78782 13.1577C4.64424 13.0233 4.53259 12.8586 4.46109 12.6754C4.38959 12.4923 4.36006 12.2954 4.37467 12.0993L3.86667 4.5H4.37133C4.45467 4.5 4.52333 4.49134 4.59867 4.486C4.62093 4.49246 4.64367 4.49714 4.66667 4.5H11.3333C11.3559 4.49707 11.3782 4.49239 11.4 4.486C11.4753 4.49134 11.544 4.5 11.6273 4.5H12.1333L11.6253 12.0993ZM9.83333 7.33334V10.6667C9.83333 10.7993 9.78065 10.9265 9.68689 11.0202C9.59312 11.114 9.46594 11.1667 9.33333 11.1667C9.20073 11.1667 9.07355 11.114 8.97978 11.0202C8.88601 10.9265 8.83333 10.7993 8.83333 10.6667V7.33334C8.83333 7.20073 8.88601 7.07355 8.97978 6.97978C9.07355 6.88601 9.20073 6.83334 9.33333 6.83334C9.46594 6.83334 9.59312 6.88601 9.68689 6.97978C9.78065 7.07355 9.83333 7.20073 9.83333 7.33334ZM7.16667 7.33334V10.6667C7.16667 10.7993 7.11399 10.9265 7.02022 11.0202C6.92645 11.114 6.79927 11.1667 6.66667 11.1667C6.53406 11.1667 6.40688 11.114 6.31311 11.0202C6.21935 10.9265 6.16667 10.7993 6.16667 10.6667V7.33334C6.16667 7.20073 6.21935 7.07355 6.31311 6.97978C6.40688 6.88601 6.53406 6.83334 6.66667 6.83334C6.79927 6.83334 6.92645 6.88601 7.02022 6.97978C7.11399 7.07355 7.16667 7.20073 7.16667 7.33334Z" fill="#FB2C36"/>
</g>
</svg>
